<?xml version="1.0" encoding="UTF-8"?>
<svg id="Layer_1" xmlns="http://www.w3.org/2000/svg" version="1.1" viewBox="0 0 20 20">
  <!-- Generator: Adobe Illustrator 29.8.2, SVG Export Plug-In . SVG Version: 2.1.1 Build 3)  -->
  <defs>
    <style>
      .st0 {
        fill: #fff;
      }

      .st1 {
        fill: #162840;
      }
    </style>
  </defs>
  <rect class="st1" x=".4" y=".4" width="19.2" height="19.2" rx="4.3" ry="4.3"/>
  <path class="st0" d="M3.9,16.7v-.6c0-1,.8-1.9,1.9-1.9h3.6c.8,0,1.6-.2,2.3-.6.7-.4,1.2-.9,1.6-1.6.4-.6.6-1.3.6-2.1s-.2-1.4-.6-2.1c-.4-.6-.9-1.2-1.6-1.6-.7-.4-1.5-.6-2.3-.6h-2.8v4.8h-.6c-1.1,0-2-.9-2-2V3.3h5.5s0,0,0,0c1.3,0,2.5.4,3.5,1,.9.5,1.7,1.2,2.2,2,.1.1.2.3.3.5.5.8.8,1.6.9,2.5,0,.3,0,.5,0,.8,0,1.2-.3,2.3-.9,3.3-.6,1-1.5,1.8-2.6,2.4-1.1.6-2.3.9-3.5,1h0s-5.5,0-5.5,0Z"/>
</svg>