<?xml version="1.0" encoding="UTF-8"?>
<svg id="Layer_1" xmlns="http://www.w3.org/2000/svg" version="1.1" viewBox="0 0 1053.2 158.2">
  <!-- Generator: Adobe Illustrator 29.8.2, SVG Export Plug-In . SVG Version: 2.1.1 Build 3)  -->
  <defs>
    <style>
      .st0 {
        fill: #162840;
      }
    </style>
  </defs>
  <g>
    <path class="st0" d="M425.7,8.2c4.8,2.5,8.4,6.1,11,10.7,2.6,4.6,3.9,9.8,3.9,15.7s-1.3,11-3.9,15.6c-2.6,4.6-6.3,8.2-11.1,10.8-4.8,2.6-10.3,3.9-16.6,3.9h-23.9V4.4h23.9c6.3,0,11.9,1.3,16.7,3.8ZM419.3,46c2.8-2.7,4.2-6.5,4.2-11.4s-1.4-8.8-4.2-11.5c-2.8-2.7-6.7-4.1-11.6-4.1h-5.8v31h5.8c4.9,0,8.8-1.3,11.6-4Z"/>
    <path class="st0" d="M464.6,4.4v35c0,3.3.8,5.8,2.3,7.5,1.5,1.8,3.8,2.7,6.9,2.7s5.4-.9,7-2.7c1.6-1.8,2.4-4.3,2.4-7.5V4.4h16.8v35c0,5.5-1.2,10.3-3.5,14.2-2.3,3.9-5.5,6.9-9.6,8.8-4,2-8.5,3-13.4,3s-9.3-1-13.2-3c-3.9-2-6.9-4.9-9.1-8.8-2.2-3.9-3.3-8.6-3.3-14.2V4.4h16.7Z"/>
    <path class="st0" d="M547.3,55h-21.4l-3.3,9.9h-17.6l22-60.4h19.4l21.9,60.4h-17.7l-3.3-9.9ZM543.1,42.1l-6.5-19.5-6.4,19.5h12.9Z"/>
    <path class="st0" d="M604.4,64.8l-12-22.3h-1.8v22.3h-16.8V4.4h26.5c4.9,0,9,.8,12.3,2.5,3.4,1.7,5.9,4,7.6,6.9,1.7,2.9,2.6,6.2,2.6,9.9s-1.1,7.7-3.4,10.8c-2.3,3.1-5.6,5.3-9.9,6.6l13.6,23.6h-18.8ZM590.6,31.1h8.3c2.3,0,4-.5,5.1-1.6,1.1-1.1,1.7-2.7,1.7-4.7s-.6-3.5-1.8-4.6c-1.2-1.1-2.9-1.7-5.1-1.7h-8.3v12.6Z"/>
    <path class="st0" d="M675.9,4.4v13.4h-16.1v47h-16.8V17.8h-15.9V4.4h48.8Z"/>
    <path class="st0" d="M699,17.9v9.9h19.3v12.8h-19.3v10.9h21.8v13.5h-38.6V4.4h38.6v13.5h-21.8Z"/>
    <path class="st0" d="M747.2,50.4l-9.2,25h-10.6l4.5-25h15.3Z"/>
    <path class="st0" d="M831.2,4.4l-20.8,60.4h-21.5l-20.9-60.4h18l13.7,43.6,13.6-43.6h17.9Z"/>
    <path class="st0" d="M853.2,4.4v60.4h-16.8V4.4h16.8Z"/>
    <path class="st0" d="M879.6,17.9v9.9h19.3v12.8h-19.3v10.9h21.8v13.5h-38.6V4.4h38.6v13.5h-21.8Z"/>
    <path class="st0" d="M926.5,4.4v60.4h-16.8V4.4h16.8Z"/>
    <path class="st0" d="M966.7,64.8l-12-22.3h-1.8v22.3h-16.8V4.4h26.5c4.9,0,9,.8,12.3,2.5,3.4,1.7,5.9,4,7.6,6.9,1.7,2.9,2.6,6.2,2.6,9.9s-1.1,7.7-3.4,10.8c-2.3,3.1-5.6,5.3-9.9,6.6l13.6,23.6h-18.8ZM952.9,31.1h8.3c2.3,0,4-.5,5.1-1.6,1.1-1.1,1.7-2.7,1.7-4.7s-.6-3.5-1.8-4.6c-1.2-1.1-2.9-1.7-5.1-1.7h-8.3v12.6Z"/>
    <path class="st0" d="M1030.9,55h-21.4l-3.3,9.9h-17.6l22-60.4h19.4l21.9,60.4h-17.7l-3.3-9.9ZM1026.7,42.1l-6.5-19.5-6.4,19.5h12.9Z"/>
    <path class="st0" d="M428.8,152.9l-4.7-4.4c-5.2,3.5-11.4,5.3-18.5,5.3s-8.5-.7-11.8-2.2c-3.3-1.5-5.9-3.5-7.8-6.2-1.8-2.7-2.7-5.7-2.7-9.2s.9-6.7,2.7-9.5c1.8-2.9,4.6-5.2,8.2-7-1.4-1.7-2.3-3.4-2.9-5-.6-1.6-.9-3.3-.9-5.1,0-2.8.7-5.4,2.2-7.8,1.5-2.3,3.6-4.2,6.5-5.6,2.9-1.4,6.3-2.1,10.2-2.1s7.4.7,10.1,2.2c2.8,1.4,4.9,3.4,6.3,5.7,1.4,2.4,2.1,4.9,2,7.7h-14.8c0-1.3-.4-2.2-1.1-2.9-.7-.7-1.6-1-2.6-1s-2,.3-2.7.9c-.7.6-1.1,1.5-1.1,2.6,0,1.9,1.4,4.2,4.1,6.9l13.5,13.2c.5-1,1-2.2,1.6-3.5l1.6-2.9h15.9l-2.4,4.6c-2,4.7-4.1,8.6-6.5,11.8l13.7,13.4h-18.1ZM414.3,139.1l-11.4-10.9c-1.4.9-2.5,1.9-3.2,3-.7,1.1-1.1,2.3-1.1,3.5,0,1.7.7,3.2,2.1,4.4,1.4,1.2,3.4,1.8,5.8,1.8s5.4-.6,7.7-1.9Z"/>
    <path class="st0" d="M508.9,139.3h-26l-5,13.6h-6l20.8-56.4h6.5l20.8,56.4h-6l-5-13.6ZM507.2,134.6l-11.3-30.9-11.3,30.9h22.6Z"/>
    <path class="st0" d="M544.6,151.5c-2.9-1.3-5.1-3.1-6.7-5.5s-2.5-5-2.6-7.8h6c.3,2.8,1.5,5.2,3.7,7.3,2.2,2.1,5.4,3.1,9.6,3.1s6.9-1,9.2-3c2.3-2,3.4-4.5,3.4-7.6s-.6-4.4-1.9-5.9c-1.3-1.5-2.8-2.6-4.7-3.4-1.9-.7-4.4-1.5-7.7-2.4-3.8-1-6.8-2-9.1-3-2.2-1-4.1-2.5-5.7-4.6-1.6-2.1-2.4-4.9-2.4-8.4s.8-5.6,2.3-7.9c1.5-2.3,3.7-4.1,6.5-5.4,2.8-1.3,6-2,9.6-2,5.3,0,9.5,1.3,12.8,3.9,3.2,2.6,5.1,5.9,5.6,10h-6.2c-.4-2.3-1.7-4.4-3.8-6.3-2.2-1.8-5.1-2.7-8.8-2.7s-6.3.9-8.6,2.7c-2.3,1.8-3.4,4.3-3.4,7.5s.6,4.3,1.9,5.8c1.3,1.5,2.8,2.6,4.7,3.4,1.9.8,4.4,1.6,7.6,2.5,3.7,1,6.7,2.1,9,3.1,2.3,1,4.2,2.5,5.8,4.6,1.6,2.1,2.4,4.8,2.4,8.3s-.7,5.2-2.1,7.6c-1.4,2.4-3.5,4.3-6.3,5.8-2.8,1.5-6.1,2.2-10,2.2s-7.1-.7-9.9-2Z"/>
    <path class="st0" d="M599.5,151.5c-2.9-1.3-5.1-3.1-6.7-5.5-1.6-2.3-2.5-5-2.6-7.8h6c.3,2.8,1.5,5.2,3.7,7.3,2.2,2.1,5.4,3.1,9.6,3.1s6.9-1,9.2-3c2.3-2,3.4-4.5,3.4-7.6s-.6-4.4-1.9-5.9c-1.3-1.5-2.8-2.6-4.7-3.4s-4.4-1.5-7.7-2.4c-3.8-1-6.8-2-9.1-3-2.2-1-4.1-2.5-5.7-4.6-1.6-2.1-2.4-4.9-2.4-8.4s.8-5.6,2.3-7.9c1.5-2.3,3.7-4.1,6.5-5.4s6-2,9.6-2c5.3,0,9.5,1.3,12.8,3.9,3.2,2.6,5.1,5.9,5.6,10h-6.2c-.4-2.3-1.7-4.4-3.8-6.3-2.2-1.8-5.1-2.7-8.8-2.7s-6.3.9-8.6,2.7c-2.3,1.8-3.4,4.3-3.4,7.5s.6,4.3,1.9,5.8c1.3,1.5,2.8,2.6,4.7,3.4,1.9.8,4.4,1.6,7.6,2.5,3.7,1,6.7,2.1,9,3.1,2.3,1,4.2,2.5,5.8,4.6,1.6,2.1,2.4,4.8,2.4,8.3s-.7,5.2-2.1,7.6c-1.4,2.4-3.5,4.3-6.3,5.8-2.8,1.5-6.1,2.2-10,2.2s-7.1-.7-9.9-2Z"/>
    <path class="st0" d="M658.3,149.8c-4.3-2.5-7.7-5.9-10.2-10.4s-3.7-9.5-3.7-15.1,1.2-10.6,3.7-15.1c2.5-4.4,5.9-7.9,10.2-10.4,4.3-2.5,9.1-3.7,14.4-3.7s10.2,1.2,14.5,3.7c4.3,2.5,7.7,5.9,10.1,10.4,2.5,4.4,3.7,9.5,3.7,15.1s-1.2,10.6-3.7,15.1c-2.5,4.4-5.8,7.9-10.1,10.4-4.3,2.5-9.1,3.7-14.5,3.7s-10.1-1.2-14.4-3.7ZM684.2,145.5c3.4-2,6-4.8,8-8.5s2.9-7.9,2.9-12.8-1-9.1-2.9-12.7c-2-3.6-4.6-6.5-8-8.4-3.4-2-7.2-2.9-11.4-2.9s-8.1,1-11.4,2.9c-3.4,2-6,4.8-8,8.4-2,3.6-2.9,7.9-2.9,12.7s1,9.1,2.9,12.8c2,3.7,4.6,6.5,8,8.5,3.4,2,7.2,2.9,11.4,2.9s8.1-1,11.4-2.9Z"/>
    <path class="st0" d="M720.7,109.2c2.5-4.4,5.8-7.9,10.1-10.4,4.2-2.5,9-3.7,14.2-3.7s11.8,1.5,16.4,4.5c4.5,3,7.9,7.3,9.9,12.8h-6.7c-1.6-3.9-4.1-6.9-7.5-9.1-3.4-2.2-7.4-3.3-12.1-3.3s-8,1-11.3,2.9c-3.3,2-6,4.8-7.9,8.5s-2.9,7.9-2.9,12.8,1,9.1,2.9,12.7c1.9,3.7,4.5,6.5,7.9,8.4,3.4,2,7.1,2.9,11.3,2.9s8.8-1.1,12.1-3.2c3.3-2.2,5.8-5.1,7.5-8.9h6.7c-2.1,5.4-5.4,9.7-10,12.7-4.6,3-10,4.5-16.3,4.5s-10-1.2-14.2-3.7c-4.2-2.5-7.6-5.9-10.1-10.3-2.5-4.4-3.7-9.4-3.7-15s1.2-10.6,3.7-15.1Z"/>
    <path class="st0" d="M796.5,95.8v57.1h-5.7v-57.1h5.7Z"/>
    <path class="st0" d="M850.8,139.3h-26l-5,13.6h-6l20.8-56.4h6.5l20.8,56.4h-6l-5-13.6ZM849,134.6l-11.3-30.9-11.3,30.9h22.6Z"/>
    <path class="st0" d="M912.3,99.2c4.5,2.3,8,5.6,10.4,9.9,2.4,4.3,3.6,9.4,3.6,15.4s-1.2,11-3.6,15.2c-2.4,4.3-5.9,7.5-10.4,9.8-4.5,2.3-9.9,3.4-16.3,3.4h-16.9v-57.1h16.9c6.3,0,11.7,1.1,16.3,3.4ZM914.2,141.9c4.2-4.2,6.3-10,6.3-17.4s-2.1-13.4-6.3-17.6c-4.2-4.2-10.2-6.3-18.2-6.3h-11.2v47.6h11.2c8,0,14-2.1,18.2-6.3Z"/>
    <path class="st0" d="M956.2,149.8c-4.3-2.5-7.7-5.9-10.2-10.4-2.5-4.4-3.7-9.5-3.7-15.1s1.2-10.6,3.7-15.1c2.5-4.4,5.9-7.9,10.2-10.4,4.3-2.5,9.1-3.7,14.4-3.7s10.2,1.2,14.5,3.7c4.3,2.5,7.7,5.9,10.1,10.4,2.5,4.4,3.7,9.5,3.7,15.1s-1.2,10.6-3.7,15.1c-2.5,4.4-5.8,7.9-10.1,10.4-4.3,2.5-9.1,3.7-14.5,3.7s-10.1-1.2-14.4-3.7ZM982.1,145.5c3.4-2,6-4.8,8-8.5,2-3.7,2.9-7.9,2.9-12.8s-1-9.1-2.9-12.7c-2-3.6-4.6-6.5-8-8.4-3.4-2-7.2-2.9-11.4-2.9s-8.1,1-11.4,2.9c-3.4,2-6,4.8-8,8.4-2,3.6-2.9,7.9-2.9,12.7s1,9.1,2.9,12.8c2,3.7,4.6,6.5,8,8.5,3.4,2,7.2,2.9,11.4,2.9s8.1-1,11.4-2.9Z"/>
    <path class="st0" d="M1024.9,151.5c-2.9-1.3-5.1-3.1-6.7-5.5-1.6-2.3-2.5-5-2.6-7.8h6c.3,2.8,1.5,5.2,3.7,7.3,2.2,2.1,5.4,3.1,9.6,3.1s6.9-1,9.2-3c2.3-2,3.4-4.5,3.4-7.6s-.6-4.4-1.9-5.9c-1.3-1.5-2.8-2.6-4.7-3.4-1.9-.7-4.4-1.5-7.7-2.4-3.8-1-6.8-2-9.1-3-2.2-1-4.1-2.5-5.7-4.6-1.6-2.1-2.4-4.9-2.4-8.4s.8-5.6,2.3-7.9c1.5-2.3,3.7-4.1,6.5-5.4,2.8-1.3,6-2,9.6-2,5.3,0,9.5,1.3,12.8,3.9,3.2,2.6,5.1,5.9,5.6,10h-6.2c-.4-2.3-1.7-4.4-3.8-6.3-2.2-1.8-5.1-2.7-8.8-2.7s-6.3.9-8.6,2.7c-2.3,1.8-3.4,4.3-3.4,7.5s.6,4.3,1.9,5.8c1.3,1.5,2.8,2.6,4.7,3.4,1.9.8,4.4,1.6,7.6,2.5,3.7,1,6.7,2.1,9,3.1,2.3,1,4.2,2.5,5.8,4.6,1.6,2.1,2.4,4.8,2.4,8.3s-.7,5.2-2.1,7.6c-1.4,2.4-3.5,4.3-6.3,5.8-2.8,1.5-6.1,2.2-10,2.2s-7.1-.7-9.9-2Z"/>
  </g>
  <path class="st0" d="M337.4,89.3c-1.8-8.5-10.2-14-18.7-12.2l-19.3,4.1-32.7-68.7,5-12.2c-11.8,0-22.4,7.1-26.8,18l-50.4,123-50.2-123C139.8,7.5,129.2.4,117.4.4l14.2,34.8c-6.9-9.4-15.7-17.2-26.5-23.2C92.4,4.7,78.5.9,63.2.4L0,0v60.8c0,10.1,8.2,18.3,18.3,18.3V16.8h44.4c12,.4,23,3.4,32.9,9.2,10,5.7,17.9,13.3,23.6,22.6,5.7,9.4,8.6,19.5,8.6,30.5s-2.9,21.3-8.6,30.7c-5.7,9.4-13.6,16.9-23.5,22.7-9.9,5.7-21,8.8-33.1,9.1H16.6c-9.2,0-16.6,7.4-16.6,16.6h63.1c15.4-.5,29.4-4.3,42.1-11.5,12.7-7.2,22.7-16.7,30.1-28.6,7.4-11.9,11-24.9,11-39s-.2-6.5-.6-9.6l36.3,88.7h9.7c9.3,0,17.7-5.6,21.2-14.2l40.5-99,3.1-7.5,22.4,48.1-31.4,6.6h0c1.8,8.5,10.2,14,18.7,12.2l19.5-4.1.9,1.9,11.8,25.4,6.4,12.7c5.2,10.9,17.6,18,31.4,18l-28.9-60.2-1-2.1,31.1-6.6h0Z"/>
</svg>