<?xml version="1.0" encoding="UTF-8"?>
<svg id="Layer_1" xmlns="http://www.w3.org/2000/svg" version="1.1" viewBox="0 0 1038.8 662.3">
  <!-- Generator: Adobe Illustrator 29.8.2, SVG Export Plug-In . SVG Version: 2.1.1 Build 3)  -->
  <defs>
    <style>
      .st0 {
        fill: #fff;
      }
    </style>
  </defs>
  <g>
    <path class="st0" d="M65.8,436.6c7.4,3.9,13.1,9.5,17.1,16.5,4,7.1,6,15.2,6,24.3s-2,17.1-6,24.2c-4,7.1-9.7,12.6-17.1,16.7-7.4,4-16,6-25.7,6H2.9v-93.7h37.1c9.8,0,18.4,2,25.8,5.9ZM55.9,495.1c4.3-4.2,6.5-10.1,6.5-17.7s-2.2-13.7-6.5-17.9c-4.3-4.2-10.3-6.3-17.9-6.3h-9v48.1h9c7.6,0,13.6-2.1,17.9-6.2Z"/>
    <path class="st0" d="M126,430.6v54.3c0,5,1.2,8.9,3.5,11.7,2.3,2.7,5.9,4.1,10.7,4.1s8.4-1.4,10.8-4.2c2.4-2.8,3.7-6.7,3.7-11.6v-54.3h26v54.3c0,8.6-1.8,15.9-5.4,22-3.6,6.1-8.6,10.6-14.8,13.7-6.2,3.1-13.2,4.6-20.8,4.6s-14.4-1.5-20.4-4.6c-6-3.1-10.7-7.6-14.1-13.6-3.4-6-5.1-13.4-5.1-22.1v-54.3h25.9Z"/>
    <path class="st0" d="M254.3,509h-33.2l-5,15.3h-27.4l34.1-93.7h30l34,93.7h-27.5l-5-15.3ZM247.8,489.1l-10.1-30.3-10,30.3h20.1Z"/>
    <path class="st0" d="M342.8,524.3l-18.6-34.5h-2.8v34.5h-26v-93.7h41c7.5,0,13.9,1.3,19.1,3.9,5.2,2.6,9.2,6.2,11.8,10.8,2.7,4.6,4,9.7,4,15.3s-1.7,12-5.2,16.8c-3.5,4.8-8.6,8.3-15.3,10.3l21.1,36.5h-29.1ZM321.4,472h12.9c3.5,0,6.2-.8,8-2.5,1.8-1.7,2.7-4.1,2.7-7.3s-.9-5.4-2.7-7.1c-1.8-1.7-4.4-2.6-7.9-2.6h-12.9v19.5Z"/>
    <path class="st0" d="M453.7,430.6v20.7h-25v72.9h-26v-72.9h-24.7v-20.7h75.7Z"/>
    <path class="st0" d="M489.5,451.5v15.3h29.9v19.8h-29.9v16.9h33.9v20.9h-59.9v-93.7h59.9v20.9h-33.9Z"/>
    <path class="st0" d="M564.3,502l-14.2,38.8h-16.5l6.9-38.8h23.8Z"/>
    <path class="st0" d="M694.4,430.6l-32.3,93.7h-33.3l-32.4-93.7h27.9l21.3,67.6,21.1-67.6h27.8Z"/>
    <path class="st0" d="M728.6,430.6v93.7h-26v-93.7h26Z"/>
    <path class="st0" d="M769.5,451.5v15.3h29.9v19.8h-29.9v16.9h33.9v20.9h-59.9v-93.7h59.9v20.9h-33.9Z"/>
    <path class="st0" d="M842.3,430.6v93.7h-26v-93.7h26Z"/>
    <path class="st0" d="M904.6,524.3l-18.6-34.5h-2.8v34.5h-26v-93.7h41c7.5,0,13.9,1.3,19.1,3.9,5.2,2.6,9.2,6.2,11.8,10.8,2.7,4.6,4,9.7,4,15.3s-1.7,12-5.2,16.8c-3.5,4.8-8.6,8.3-15.3,10.3l21.1,36.5h-29.1ZM883.2,472h12.9c3.5,0,6.2-.8,8-2.5,1.8-1.7,2.7-4.1,2.7-7.3s-.9-5.4-2.7-7.1c-1.8-1.7-4.4-2.6-7.9-2.6h-12.9v19.5Z"/>
    <path class="st0" d="M1004.2,509h-33.2l-5,15.3h-27.4l34.1-93.7h30l34,93.7h-27.5l-5-15.3ZM997.7,489.1l-10.1-30.3-10,30.3h20.1Z"/>
    <path class="st0" d="M70.6,660.9l-7.2-6.8c-8,5.5-17.6,8.2-28.8,8.2s-13.1-1.1-18.3-3.4c-5.2-2.3-9.2-5.5-12-9.6-2.8-4.1-4.2-8.9-4.2-14.3s1.4-10.3,4.2-14.8c2.8-4.4,7.1-8,12.7-10.8-2.1-2.7-3.6-5.3-4.6-7.7-.9-2.4-1.4-5.1-1.4-7.9,0-4.4,1.1-8.4,3.4-12,2.3-3.6,5.6-6.5,10.1-8.7,4.4-2.2,9.7-3.2,15.8-3.2s11.4,1.1,15.7,3.4c4.3,2.2,7.5,5.2,9.7,8.9,2.2,3.7,3.2,7.7,3.1,12h-22.9c0-1.9-.6-3.4-1.6-4.4-1.1-1-2.5-1.5-4.1-1.5s-3.1.5-4.2,1.5c-1.1,1-1.7,2.3-1.7,4,0,3,2.1,6.5,6.3,10.8l20.9,20.4c.8-1.5,1.6-3.3,2.4-5.4l2.5-4.6h24.6l-3.7,7.1c-3,7.3-6.4,13.4-10,18.4l21.3,20.8h-28ZM48.1,639.5l-17.6-16.9c-2.2,1.4-3.8,2.9-4.9,4.7-1.1,1.8-1.6,3.6-1.6,5.4,0,2.7,1.1,5,3.3,6.8,2.2,1.9,5.2,2.8,9,2.8s8.4-1,11.9-2.9Z"/>
    <path class="st0" d="M194.7,639.8h-40.3l-7.7,21h-9.4l32.3-87.4h10l32.2,87.4h-9.4l-7.7-21ZM192.1,632.5l-17.5-47.9-17.5,47.9h35Z"/>
    <path class="st0" d="M250.2,658.7c-4.4-2-7.9-4.9-10.5-8.5-2.5-3.6-3.9-7.7-4.1-12.2h9.4c.4,4.3,2.3,8.1,5.7,11.3,3.4,3.3,8.3,4.9,14.8,4.9s10.7-1.5,14.3-4.6c3.5-3.1,5.3-7,5.3-11.7s-1-6.9-2.9-9.2c-1.9-2.3-4.4-4.1-7.2-5.2-2.9-1.1-6.8-2.4-11.9-3.7-5.9-1.6-10.6-3.2-14.1-4.7-3.5-1.5-6.4-3.9-8.9-7.1-2.5-3.2-3.7-7.6-3.7-13.1s1.2-8.6,3.5-12.2c2.4-3.6,5.7-6.4,10-8.4,4.3-2,9.2-3,14.8-3,8.2,0,14.8,2,19.8,6,5,4,7.9,9.2,8.7,15.5h-9.6c-.6-3.6-2.6-6.9-6-9.7-3.4-2.8-7.9-4.2-13.7-4.2s-9.8,1.4-13.3,4.2c-3.5,2.8-5.3,6.7-5.3,11.6s1,6.7,2.9,9c1.9,2.3,4.4,4,7.3,5.2,2.9,1.2,6.9,2.4,11.8,3.8,5.7,1.6,10.4,3.2,13.9,4.8,3.5,1.6,6.5,3.9,9,7.2,2.4,3.2,3.7,7.5,3.7,12.9s-1.1,8.1-3.3,11.8c-2.2,3.7-5.4,6.7-9.8,9-4.3,2.3-9.5,3.4-15.5,3.4s-11-1-15.4-3Z"/>
    <path class="st0" d="M335.3,658.7c-4.4-2-7.9-4.9-10.5-8.5-2.5-3.6-3.9-7.7-4.1-12.2h9.4c.4,4.3,2.3,8.1,5.7,11.3,3.4,3.3,8.3,4.9,14.8,4.9s10.7-1.5,14.3-4.6c3.5-3.1,5.3-7,5.3-11.7s-1-6.9-2.9-9.2c-1.9-2.3-4.4-4.1-7.2-5.2-2.9-1.1-6.8-2.4-11.9-3.7-5.9-1.6-10.6-3.2-14.1-4.7-3.5-1.5-6.4-3.9-8.9-7.1-2.5-3.2-3.7-7.6-3.7-13.1s1.2-8.6,3.5-12.2c2.4-3.6,5.7-6.4,10-8.4,4.3-2,9.2-3,14.8-3,8.2,0,14.8,2,19.8,6,5,4,7.9,9.2,8.7,15.5h-9.6c-.6-3.6-2.6-6.9-6-9.7-3.4-2.8-7.9-4.2-13.7-4.2s-9.8,1.4-13.3,4.2c-3.5,2.8-5.3,6.7-5.3,11.6s1,6.7,2.9,9c1.9,2.3,4.4,4,7.3,5.2,2.9,1.2,6.9,2.4,11.8,3.8,5.7,1.6,10.4,3.2,13.9,4.8,3.5,1.6,6.5,3.9,9,7.2,2.4,3.2,3.7,7.5,3.7,12.9s-1.1,8.1-3.3,11.8c-2.2,3.7-5.4,6.7-9.8,9-4.3,2.3-9.5,3.4-15.5,3.4s-11-1-15.4-3Z"/>
    <path class="st0" d="M426.5,656c-6.7-3.8-11.9-9.2-15.8-16.1-3.8-6.9-5.8-14.7-5.8-23.4s1.9-16.5,5.8-23.4c3.8-6.9,9.1-12.2,15.8-16.1,6.7-3.8,14.1-5.8,22.3-5.8s15.8,1.9,22.4,5.8c6.7,3.8,11.9,9.2,15.7,16.1,3.8,6.9,5.7,14.7,5.7,23.4s-1.9,16.5-5.7,23.4c-3.8,6.9-9,12.2-15.7,16.1-6.7,3.8-14.1,5.8-22.4,5.8s-15.6-1.9-22.3-5.8ZM466.5,649.5c5.2-3,9.4-7.4,12.4-13.1,3-5.7,4.6-12.3,4.6-19.8s-1.5-14.1-4.6-19.8c-3-5.7-7.2-10-12.4-13.1-5.2-3-11.2-4.6-17.7-4.6s-12.5,1.5-17.7,4.6c-5.2,3-9.4,7.4-12.4,13.1-3,5.7-4.6,12.2-4.6,19.8s1.5,14.1,4.6,19.8c3,5.7,7.2,10.1,12.4,13.1,5.2,3,11.2,4.6,17.7,4.6s12.5-1.5,17.7-4.6Z"/>
    <path class="st0" d="M523.1,593.1c3.8-6.9,9-12.2,15.6-16.1,6.6-3.8,13.9-5.8,22-5.8s18.3,2.3,25.4,7c7.1,4.7,12.2,11.3,15.4,19.8h-10.4c-2.5-6-6.4-10.7-11.6-14.1-5.2-3.4-11.5-5.1-18.8-5.1s-12.4,1.5-17.5,4.6c-5.2,3-9.3,7.4-12.2,13.1s-4.4,12.3-4.4,19.8,1.5,14.1,4.4,19.8c3,5.7,7,10,12.2,13.1,5.2,3,11,4.6,17.5,4.6s13.6-1.7,18.8-5c5.2-3.3,9.1-8,11.6-13.9h10.4c-3.2,8.4-8.4,15-15.5,19.6-7.1,4.6-15.5,7-25.3,7s-15.5-1.9-22-5.8c-6.6-3.8-11.8-9.2-15.6-16-3.8-6.8-5.7-14.6-5.7-23.3s1.9-16.5,5.7-23.4Z"/>
    <path class="st0" d="M640.7,572.3v88.6h-8.9v-88.6h8.9Z"/>
    <path class="st0" d="M724.8,639.8h-40.3l-7.7,21h-9.4l32.3-87.4h10l32.2,87.4h-9.4l-7.7-21ZM722.2,632.5l-17.5-47.9-17.5,47.9h35Z"/>
    <path class="st0" d="M820.2,577.6c7,3.5,12.4,8.7,16.1,15.3,3.7,6.7,5.6,14.6,5.6,23.8s-1.9,17-5.6,23.6c-3.7,6.6-9.1,11.7-16.1,15.2-7,3.5-15.4,5.3-25.2,5.3h-26.2v-88.6h26.2c9.8,0,18.2,1.8,25.2,5.3ZM823.2,643.8c6.5-6.5,9.7-15.5,9.7-27.1s-3.2-20.8-9.7-27.3c-6.5-6.5-15.9-9.8-28.2-9.8h-17.4v73.9h17.4c12.3,0,21.7-3.2,28.2-9.7Z"/>
    <path class="st0" d="M888.4,656c-6.7-3.8-11.9-9.2-15.8-16.1-3.8-6.9-5.8-14.7-5.8-23.4s1.9-16.5,5.8-23.4c3.8-6.9,9.1-12.2,15.8-16.1,6.7-3.8,14.1-5.8,22.3-5.8s15.8,1.9,22.4,5.8c6.7,3.8,11.9,9.2,15.7,16.1,3.8,6.9,5.7,14.7,5.7,23.4s-1.9,16.5-5.7,23.4c-3.8,6.9-9,12.2-15.7,16.1-6.7,3.8-14.1,5.8-22.4,5.8s-15.6-1.9-22.3-5.8ZM928.4,649.5c5.2-3,9.4-7.4,12.4-13.1,3-5.7,4.6-12.3,4.6-19.8s-1.5-14.1-4.6-19.8c-3-5.7-7.2-10-12.4-13.1-5.2-3-11.2-4.6-17.7-4.6s-12.5,1.5-17.7,4.6c-5.2,3-9.4,7.4-12.4,13.1-3,5.7-4.6,12.2-4.6,19.8s1.5,14.1,4.6,19.8c3,5.7,7.2,10.1,12.4,13.1,5.2,3,11.2,4.6,17.7,4.6s12.5-1.5,17.7-4.6Z"/>
    <path class="st0" d="M994.9,658.7c-4.4-2-7.9-4.9-10.5-8.5-2.5-3.6-3.9-7.7-4.1-12.2h9.4c.4,4.3,2.3,8.1,5.7,11.3,3.4,3.3,8.3,4.9,14.8,4.9s10.7-1.5,14.3-4.6c3.5-3.1,5.3-7,5.3-11.7s-1-6.9-2.9-9.2c-1.9-2.3-4.4-4.1-7.2-5.2-2.9-1.1-6.8-2.4-11.9-3.7-5.9-1.6-10.6-3.2-14.1-4.7-3.5-1.5-6.4-3.9-8.9-7.1-2.5-3.2-3.7-7.6-3.7-13.1s1.2-8.6,3.5-12.2c2.4-3.6,5.7-6.4,10-8.4,4.3-2,9.2-3,14.8-3,8.2,0,14.8,2,19.8,6,5,4,7.9,9.2,8.7,15.5h-9.6c-.6-3.6-2.6-6.9-6-9.7-3.4-2.8-7.9-4.2-13.7-4.2s-9.8,1.4-13.3,4.2c-3.5,2.8-5.3,6.7-5.3,11.6s1,6.7,2.9,9c1.9,2.3,4.4,4,7.3,5.2,2.9,1.2,6.9,2.4,11.8,3.8,5.7,1.6,10.4,3.2,13.9,4.8,3.5,1.6,6.5,3.9,9,7.2,2.4,3.2,3.7,7.5,3.7,12.9s-1.1,8.1-3.3,11.8c-2.2,3.7-5.4,6.7-9.8,9-4.3,2.3-9.5,3.4-15.5,3.4s-11-1-15.4-3Z"/>
  </g>
  <path class="st0" d="M883.2,192.7c-3.9-18.4-22-30.2-40.4-26.3l-41.7,8.8-70.4-148.1,10.8-26.3c-25.4,0-48.2,15.4-57.8,38.8l-108.7,265.3L466.6,39.6C457,16.2,434.2.8,408.8.8l30.7,74.9c-14.9-20.4-33.9-37.1-57.1-50.1-27.4-15.5-57.6-23.7-90.4-24.8l-136.4-.8v131.1c0,21.8,17.7,39.5,39.5,39.5V36.3h95.7c25.8.8,49.5,7.4,71,19.7,21.6,12.3,38.6,28.6,50.9,48.8,12.4,20.2,18.5,42.2,18.5,65.8s-6.2,45.9-18.5,66.2c-12.3,20.2-29.3,36.5-50.7,48.9-21.5,12.3-45.2,18.9-71.3,19.7h-99.3c-19.8,0-35.8,16-35.8,35.8h136c33.1-1.1,63.4-9.3,90.8-24.8,27.4-15.4,49-36,64.9-61.7,15.9-25.6,23.8-53.7,23.8-84.1s-.4-13.9-1.4-20.7l78.3,191.3h21c20.1,0,38.1-12.1,45.7-30.7l87.4-213.5,6.7-16.3,48.3,103.8-67.7,14.3h0c3.9,18.4,22,30.2,40.4,26.3l42.1-8.9,1.9,4.1,25.4,54.7,13.8,27.5c11.3,23.5,38,38.8,67.7,38.8l-62.2-129.8-2.2-4.6,67-14.2h0Z"/>
</svg>